<?xml version="1.0" standalone="no"?>
<!DOCTYPE svg PUBLIC "-//W3C//DTD SVG 20010904//EN"
 "http://www.w3.org/TR/2001/REC-SVG-20010904/DTD/svg10.dtd">
<svg version="1.0" xmlns="http://www.w3.org/2000/svg"
 width="512.000000pt" height="512.000000pt" viewBox="0 0 512.000000 512.000000"
 preserveAspectRatio="xMidYMid meet">
<metadata>
Created by potrace 1.14, written by Peter Selinger 2001-2017
</metadata>
<g transform="translate(0.000000,512.000000) scale(0.100000,-0.100000)"
fill="#000000" stroke="none">
<path d="M3787 5074 c-1 -1 -29 -4 -62 -7 -82 -8 -108 -14 -195 -44 -129 -46
-247 -121 -341 -220 -45 -47 -85 -94 -442 -523 -94 -113 -173 -207 -176 -210
-4 -3 -44 -52 -91 -110 -46 -58 -94 -116 -106 -130 -12 -14 -239 -286 -504
-605 -266 -319 -503 -604 -528 -633 -25 -29 -54 -65 -66 -80 -11 -15 -33 -40
-47 -57 -15 -16 -88 -104 -164 -195 -75 -91 -144 -174 -153 -185 -39 -46 -170
-204 -207 -250 -22 -26 -56 -67 -75 -90 -19 -22 -53 -63 -75 -90 -22 -27 -47
-56 -55 -65 -8 -9 -33 -38 -55 -65 -21 -28 -42 -52 -45 -55 -3 -3 -64 -75
-134 -160 -71 -85 -141 -170 -157 -189 -16 -19 -30 -39 -30 -45 -3 -30 4 -53
23 -69 19 -16 76 -17 878 -17 l857 0 -1 -317 -1 -318 -866 0 -866 0 -37 -29
c-92 -69 -83 -201 17 -253 30 -15 222 -17 2484 -17 l2452 -1 28 21 c100 74 95
212 -10 263 -43 21 -46 21 -1105 21 l-1062 0 0 314 0 313 88 7 c245 19 456 80
670 192 188 98 314 193 477 358 276 278 468 625 549 993 46 205 49 264 50 818
l1 530 151 0 c137 1 153 3 186 23 53 33 72 68 73 132 0 42 -5 63 -23 88 -41
57 -70 65 -237 66 l-150 2 -2 34 c-9 131 -28 215 -74 324 -110 258 -354 455
-634 512 -60 12 -201 24 -208 18z m-1226 -4116 c4 -126 0 -601 -5 -606 -11
-11 -406 -8 -407 3 -3 30 -4 611 -1 618 2 4 95 7 208 7 l204 0 1 -22z"/>
</g>
</svg>
